{
	"asset":{
		"version":"2.0",
		"generator":"Created using the official Cinema 4D glTF Exporter 1.000x284978"
	},
	"scenes":[{
		"nodes":[0,
		10]
	}],
	"nodes":[{
		"translation":[-478.2628173828125,
		0.0,
		423.8801574707031],
		"name":"MoText",
		"scale":[1.0,
		1.0,
		1.0],
		"rotation":[0.0,
		0.0,
		0.0,
		-1.0],
		"children":[1]
	},
	{
		"name":"1",
		"children":[2,
		5]
	},
	{
		"name":"Go",
		"children":[3,
		4]
	},
	{
		"name":"G",
		"mesh":0
	},
	{
		"translation":[155.64288330078126,
		0.0,
		0.0],
		"name":"o",
		"scale":[1.0,
		1.0,
		1.0],
		"rotation":[0.0,
		0.0,
		0.0,
		-1.0],
		"mesh":1
	},
	{
		"translation":[364.9557189941406,
		0.0,
		0.0],
		"name":"Wook",
		"scale":[1.0,
		1.0,
		1.0],
		"rotation":[0.0,
		0.0,
		0.0,
		-1.0],
		"children":[6,
		7,
		8,
		9]
	},
	{
		"name":"W",
		"mesh":2
	},
	{
		"translation":[211.5227813720703,
		0.0,
		0.0],
		"name":"o",
		"scale":[1.0,
		1.0,
		1.0],
		"rotation":[0.0,
		0.0,
		0.0,
		-1.0],
		"mesh":3
	},
	{
		"translation":[345.0662841796875,
		0.0,
		0.0],
		"name":"o",
		"scale":[1.0,
		1.0,
		1.0],
		"rotation":[0.0,
		0.0,
		0.0,
		-1.0],
		"mesh":4
	},
	{
		"translation":[478.6097717285156,
		0.0,
		0.0],
		"name":"k",
		"scale":[1.0,
		1.0,
		1.0],
		"rotation":[0.0,
		0.0,
		0.0,
		-1.0],
		"mesh":5
	},
	{
		"name":"Cube",
		"mesh":6
	}],
	"meshes":[{
		"name":"G",
		"primitives":[{
			"attributes":{
				"POSITION":1,
				"NORMAL":2,
				"TEXCOORD_0":3
			},
			"indices":0,
			"material":0
		}]
	},
	{
		"name":"o",
		"primitives":[{
			"attributes":{
				"POSITION":5,
				"NORMAL":6,
				"TEXCOORD_0":7
			},
			"indices":4,
			"material":0
		}]
	},
	{
		"name":"W",
		"primitives":[{
			"attributes":{
				"POSITION":9,
				"NORMAL":10,
				"TEXCOORD_0":11
			},
			"indices":8,
			"material":0
		}]
	},
	{
		"name":"o",
		"primitives":[{
			"attributes":{
				"POSITION":13,
				"NORMAL":14,
				"TEXCOORD_0":15
			},
			"indices":12,
			"material":0
		}]
	},
	{
		"name":"o",
		"primitives":[{
			"attributes":{
				"POSITION":17,
				"NORMAL":18,
				"TEXCOORD_0":19
			},
			"indices":16,
			"material":0
		}]
	},
	{
		"name":"k",
		"primitives":[{
			"attributes":{
				"POSITION":21,
				"NORMAL":22,
				"TEXCOORD_0":23
			},
			"indices":20,
			"material":0
		}]
	},
	{
		"name":"Cube",
		"primitives":[{
			"attributes":{
				"POSITION":25,
				"NORMAL":26,
				"TEXCOORD_0":27
			},
			"indices":24,
			"material":1
		}]
	}],
	"accessors":[{
		"bufferView":0,
		"type":"SCALAR",
		"componentType":5123,
		"count":1140,
		"byteOffset":0,
		"min":[0],
		"max":[399]
	},
	{
		"bufferView":1,
		"type":"VEC3",
		"componentType":5126,
		"count":400,
		"byteOffset":0,
		"min":[8.629287719726563,
		-2.7361156940460207,
		-85.1310806274414],
		"max":[142.27801513671876,
		157.431884765625,
		0.0]
	},
	{
		"bufferView":1,
		"type":"VEC3",
		"componentType":5126,
		"count":400,
		"byteOffset":12,
		"min":[-1.0,
		-1.0,
		-1.0],
		"max":[1.0,
		1.0,
		1.0]
	},
	{
		"bufferView":1,
		"type":"VEC2",
		"componentType":5126,
		"count":400,
		"byteOffset":24,
		"min":[0.0,
		0.0],
		"max":[1.0,
		1.0]
	},
	{
		"bufferView":2,
		"type":"SCALAR",
		"componentType":5123,
		"count":1572,
		"byteOffset":0,
		"min":[0],
		"max":[527]
	},
	{
		"bufferView":3,
		"type":"VEC3",
		"componentType":5126,
		"count":528,
		"byteOffset":0,
		"min":[8.629287719726563,
		-2.7361156940460207,
		-85.1310806274414],
		"max":[125.01943969726563,
		113.23309326171875,
		0.0]
	},
	{
		"bufferView":3,
		"type":"VEC3",
		"componentType":5126,
		"count":528,
		"byteOffset":12,
		"min":[-0.9999819993972778,
		-0.9999911785125732,
		-1.0],
		"max":[0.999999463558197,
		0.9998781085014343,
		1.0]
	},
	{
		"bufferView":3,
		"type":"VEC2",
		"componentType":5126,
		"count":528,
		"byteOffset":24,
		"min":[0.0,
		0.0],
		"max":[1.0,
		1.0]
	},
	{
		"bufferView":4,
		"type":"SCALAR",
		"componentType":5123,
		"count":348,
		"byteOffset":0,
		"min":[0],
		"max":[163]
	},
	{
		"bufferView":5,
		"type":"VEC3",
		"componentType":5126,
		"count":164,
		"byteOffset":0,
		"min":[2.1047043800354006,
		0.0,
		-85.1310806274414],
		"max":[215.31124877929688,
		154.90623474121095,
		0.0]
	},
	{
		"bufferView":5,
		"type":"VEC3",
		"componentType":5126,
		"count":164,
		"byteOffset":12,
		"min":[-0.9965521097183228,
		-1.0,
		-1.0],
		"max":[0.9956095218658447,
		1.0,
		1.0]
	},
	{
		"bufferView":5,
		"type":"VEC2",
		"componentType":5126,
		"count":164,
		"byteOffset":24,
		"min":[0.0,
		0.0],
		"max":[1.0,
		1.0]
	},
	{
		"bufferView":6,
		"type":"SCALAR",
		"componentType":5123,
		"count":1572,
		"byteOffset":0,
		"min":[0],
		"max":[527]
	},
	{
		"bufferView":7,
		"type":"VEC3",
		"componentType":5126,
		"count":528,
		"byteOffset":0,
		"min":[8.629287719726563,
		-2.7361156940460207,
		-85.1310806274414],
		"max":[125.01943969726563,
		113.23309326171875,
		0.0]
	},
	{
		"bufferView":7,
		"type":"VEC3",
		"componentType":5126,
		"count":528,
		"byteOffset":12,
		"min":[-0.9999819993972778,
		-0.9999911785125732,
		-1.0],
		"max":[0.999999463558197,
		0.9998781085014343,
		1.0]
	},
	{
		"bufferView":7,
		"type":"VEC2",
		"componentType":5126,
		"count":528,
		"byteOffset":24,
		"min":[0.0,
		0.0],
		"max":[1.0,
		1.0]
	},
	{
		"bufferView":8,
		"type":"SCALAR",
		"componentType":5123,
		"count":1572,
		"byteOffset":0,
		"min":[0],
		"max":[527]
	},
	{
		"bufferView":9,
		"type":"VEC3",
		"componentType":5126,
		"count":528,
		"byteOffset":0,
		"min":[8.629287719726563,
		-2.7361156940460207,
		-85.1310806274414],
		"max":[125.01943969726563,
		113.23309326171875,
		0.0]
	},
	{
		"bufferView":9,
		"type":"VEC3",
		"componentType":5126,
		"count":528,
		"byteOffset":12,
		"min":[-0.9999819993972778,
		-0.9999911785125732,
		-1.0],
		"max":[0.999999463558197,
		0.9998781085014343,
		1.0]
	},
	{
		"bufferView":9,
		"type":"VEC2",
		"componentType":5126,
		"count":528,
		"byteOffset":24,
		"min":[0.0,
		0.0],
		"max":[1.0,
		1.0]
	},
	{
		"bufferView":10,
		"type":"SCALAR",
		"componentType":5123,
		"count":144,
		"byteOffset":0,
		"min":[0],
		"max":[77]
	},
	{
		"bufferView":11,
		"type":"VEC3",
		"componentType":5126,
		"count":78,
		"byteOffset":0,
		"min":[15.364341735839844,
		0.0,
		-85.1310806274414],
		"max":[120.59955596923828,
		163.64076232910157,
		0.0]
	},
	{
		"bufferView":11,
		"type":"VEC3",
		"componentType":5126,
		"count":78,
		"byteOffset":12,
		"min":[-1.0,
		-1.0,
		-1.0],
		"max":[1.0,
		1.0,
		1.0]
	},
	{
		"bufferView":11,
		"type":"VEC2",
		"componentType":5126,
		"count":78,
		"byteOffset":24,
		"min":[0.0,
		0.0],
		"max":[1.0,
		1.0]
	},
	{
		"bufferView":12,
		"type":"SCALAR",
		"componentType":5123,
		"count":36,
		"byteOffset":0,
		"min":[0],
		"max":[23]
	},
	{
		"bufferView":13,
		"type":"VEC3",
		"componentType":5126,
		"count":24,
		"byteOffset":0,
		"min":[-175.0,
		-175.0,
		-175.0],
		"max":[175.0,
		175.0,
		175.0]
	},
	{
		"bufferView":13,
		"type":"VEC3",
		"componentType":5126,
		"count":24,
		"byteOffset":12,
		"min":[-1.0,
		-1.0,
		-1.0],
		"max":[1.0,
		1.0,
		1.0]
	},
	{
		"bufferView":13,
		"type":"VEC2",
		"componentType":5126,
		"count":24,
		"byteOffset":24,
		"min":[0.0,
		0.0],
		"max":[1.0,
		1.0]
	}],
	"buffers":[{
		"uri":"data:application/octet-stream;base64,",
		"byteLength":15080
	},
	{
		"uri":"data:application/octet-stream;base64,",
		"byteLength":20040
	},
	{
		"uri":"data:application/octet-stream;base64,",
		"byteLength":5944
	},
	{
		"uri":"data:application/octet-stream;base64,",
		"byteLength":20040
	},
	{
		"uri":"data:application/octet-stream;base64,",
		"byteLength":20040
	},
	{
		"uri":"data:application/octet-stream;base64,",
		"byteLength":2784
	},
	{
		"uri":"data:application/octet-stream;base64,",
		"byteLength":840
	}],
	"bufferViews":[{
		"byteOffset":0,
		"buffer":0,
		"byteLength":2280,
		"target":34963
	},
	{
		"byteOffset":2280,
		"buffer":0,
		"byteLength":12800,
		"target":34962,
		"byteStride":32
	},
	{
		"byteOffset":0,
		"buffer":1,
		"byteLength":3144,
		"target":34963
	},
	{
		"byteOffset":3144,
		"buffer":1,
		"byteLength":16896,
		"target":34962,
		"byteStride":32
	},
	{
		"byteOffset":0,
		"buffer":2,
		"byteLength":696,
		"target":34963
	},
	{
		"byteOffset":696,
		"buffer":2,
		"byteLength":5248,
		"target":34962,
		"byteStride":32
	},
	{
		"byteOffset":0,
		"buffer":3,
		"byteLength":3144,
		"target":34963
	},
	{
		"byteOffset":3144,
		"buffer":3,
		"byteLength":16896,
		"target":34962,
		"byteStride":32
	},
	{
		"byteOffset":0,
		"buffer":4,
		"byteLength":3144,
		"target":34963
	},
	{
		"byteOffset":3144,
		"buffer":4,
		"byteLength":16896,
		"target":34962,
		"byteStride":32
	},
	{
		"byteOffset":0,
		"buffer":5,
		"byteLength":288,
		"target":34963
	},
	{
		"byteOffset":288,
		"buffer":5,
		"byteLength":2496,
		"target":34962,
		"byteStride":32
	},
	{
		"byteOffset":0,
		"buffer":6,
		"byteLength":72,
		"target":34963
	},
	{
		"byteOffset":72,
		"buffer":6,
		"byteLength":768,
		"target":34962,
		"byteStride":32
	}],
	"materials":[{
		"pbrMetallicRoughness":{
			"baseColorFactor":[0.0,
			0.6833333333333331,
			1.0,
			1.0],
			"metallicFactor":0.0,
			"roughnessFactor":0.5
		},
		"emissiveFactor":[0.0,
		0.0,
		0.0],
		"alphaMode":"OPAQUE",
		"doubleSided":false,
		"name":"Mat"
	},
	{
		"pbrMetallicRoughness":{
			"baseColorFactor":[1.0,
			0.8666666666666667,
			0.0,
			1.0],
			"metallicFactor":0.0,
			"roughnessFactor":0.5
		},
		"emissiveFactor":[0.0,
		0.0,
		0.0],
		"alphaMode":"OPAQUE",
		"doubleSided":false,
		"name":"Mat.1"
	}]
}